Coordinates
version=1
nRows=15
nColumns=34
inDegrees=yes

Units are S.I. units (second, meters, Newtons, ...)
If the header above contains a line with 'inDegrees', this indicates whether rotational values are in degrees (yes) or radians (no).

endheader
time	pelvis_tilt	pelvis_list	pelvis_rotation	pelvis_tx	pelvis_ty	pelvis_tz	hip_flexion_r	hip_adduction_r	hip_rotation_r	knee_angle_r	ankle_angle_r	subtalar_angle_r	mtp_angle_r	hip_flexion_l	hip_adduction_l	hip_rotation_l	knee_angle_l	ankle_angle_l	subtalar_angle_l	mtp_angle_l	lumbar_extension	lumbar_bending	lumbar_rotation	arm_flex_r	arm_add_r	arm_rot_r	elbow_flex_r	pro_sup_r	arm_flex_l	arm_add_l	arm_rot_l	elbow_flex_l	pro_sup_l
     43.00000000	     -2.15522648	     -2.39313191	    158.08405613	      0.29138411	      1.09203160	     -0.16493293	     18.28243740	     -4.94713407	     -5.18577259	     99.54397901	    -20.68568861	    -32.26117070	      0.00000000	     16.12842670	     -4.75518228	      3.27199270	     95.86282198	     -8.85192743	    -16.96543135	      0.00000000	     -9.11071962	     -1.69207629	      2.38736832	    359.66613200	    -24.41423745	   -398.34603168	    148.61054364	     93.18991356	    192.15591840	    202.94528323	   -561.34981109	    138.45022878	     88.89975791
     43.01666670	     -2.25161378	     -2.32668540	    158.07527714	      0.29102027	      1.09198648	     -0.16482419	     18.25343233	     -4.98955303	     -5.18034690	     99.70403384	    -20.75543954	    -32.23532879	      0.00000000	     16.06819231	     -4.76690659	      3.22271935	     96.06480583	     -8.82925641	    -17.02385566	      0.00000000	     -9.00511093	     -1.69658760	      2.33854942	    359.62967587	    -24.38795486	   -398.35028473	    148.62804457	     93.19124455	    192.14397857	    202.94263265	   -561.35585816	    138.46452086	     88.90191513
     43.03333330	     -2.26880164	     -2.43350005	    158.02051136	      0.29074937	      1.09190748	     -0.16466421	     18.43105149	     -5.15626890	     -5.04976069	     99.73556832	    -21.83299312	    -32.36381762	      0.00000000	     16.01982393	     -4.64841723	      3.01036606	     95.92985453	     -9.18565218	    -17.74637382	      0.00000000	     -8.84803231	     -1.88644599	      2.29006068	    359.33479222	    -24.06881075	   -398.37156900	    148.62030710	     93.22605756	    191.94115961	    202.93585452	   -561.56629500	    138.63118250	     88.96261715
     43.05000000	     -2.32681942	     -2.40006444	    158.00993427	      0.29056393	      1.09201093	     -0.16437301	     18.47807057	     -5.20732212	     -5.02175561	     99.73076093	    -22.26473070	    -32.12624748	      0.00000000	     15.96041373	     -4.64417314	      2.94217157	     95.95147761	     -9.14502619	    -17.91270776	      0.00000000	     -8.77117166	     -1.90038567	      2.22514837	    359.27084263	    -24.01019369	   -398.37969564	    148.62360251	     93.23071307	    191.94455196	    202.96800999	   -561.61130005	    138.65482297	     88.97336586
     43.06666670	     -2.36872904	     -2.36445562	    158.02781690	      0.29067116	      1.09205550	     -0.16391565	     18.53166935	     -5.21391914	     -5.02264364	     99.71634194	    -22.27610907	    -32.12184922	      0.00000000	     15.93528181	     -4.64441585	      2.93848333	     95.94378031	     -9.14895174	    -17.91518496	      0.00000000	     -8.75602775	     -1.90560744	      2.22257754	    359.26619157	    -24.00708705	   -398.38038072	    148.62529046	     93.23076021	    191.94358440	    202.97043343	   -561.61395987	    138.65694979	     88.97357190
     43.08333330	     -2.45767906	     -2.42944119	    157.78166778	      0.29071809	      1.09241024	     -0.16392691	     18.68368975	     -5.23871052	     -4.71695819	     99.77398369	    -23.11856414	    -32.25489609	      0.00000000	     15.69958336	     -4.55982185	      2.64086787	     95.70147961	     -9.53859199	    -18.71480343	      0.00000000	     -8.67483628	     -2.09860207	      2.32589503	    358.96923889	    -23.73062350	   -398.41434430	    148.42477799	     93.23804024	    191.76475506	    203.13367784	   -561.86347891	    138.72287263	     89.01987156
     43.10000000	     -2.49582679	     -2.40779427	    157.79483287	      0.29101946	      1.09265030	     -0.16336336	     18.73166379	     -5.23491538	     -4.72361021	     99.75654745	    -23.11765643	    -32.25605722	      0.00000000	     15.68028527	     -4.55680613	      2.63821286	     95.69669307	     -9.52957116	    -18.72448797	      0.00000000	     -8.66393949	     -2.10393697	      2.32409954	    358.96745748	    -23.72960103	   -398.41484201	    148.42625738	     93.23803917	    191.76546381	    203.13671387	   -561.86544473	    138.72385349	     89.02004288
     43.11666670	     -2.48689051	     -2.35752863	    157.70411648	      0.29119960	      1.09283909	     -0.16298737	     18.77878557	     -5.14733953	     -4.66306072	     99.72193438	    -23.01578506	    -32.27715488	      0.00000000	     15.50526946	     -4.60434900	      2.53726571	     95.50667951	     -9.14067841	    -19.28227905	      0.00000000	     -8.54902683	     -2.11461623	      2.34319619	    358.86910464	    -23.63393180	   -398.41884589	    148.34381276	     93.23784944	    191.80212267	    203.35819442	   -561.96433492	    138.71340758	     89.03125723
     43.13333330	     -2.44048372	     -2.35664261	    157.68059148	      0.29169683	      1.09314384	     -0.16225863	     18.81403069	     -5.11899088	     -4.63280410	     99.52429990	    -22.99960374	    -32.24388383	      0.00000000	     15.51197668	     -4.58979984	      2.50937520	     95.34963054	     -9.16334180	    -19.29065147	      0.00000000	     -8.55725580	     -2.09939682	      2.33133116	    358.86241484	    -23.62876242	   -398.42176741	    148.32808360	     93.23751728	    191.83003498	    203.39973379	   -561.97715857	    138.70906272	     89.03269995
     43.15000000	     -2.48166835	     -2.29804760	    157.42593753	      0.29201938	      1.09370655	     -0.16199767	     18.73594216	     -4.95964107	     -4.31940137	     99.42744920	    -22.11129666	    -31.32968724	      0.00000000	     15.28953734	     -4.67190032	      2.22432893	     95.10861083	     -9.68063846	    -19.89747653	      0.00000000	     -8.43390316	     -2.12185444	      2.52823908	    358.76610975	    -23.55858729	   -398.48226402	    147.99978438	     93.23047568	    191.76560516	    203.78081082	   -562.07778565	    138.66010018	     89.10144587
     43.16666670	     -2.42649571	     -2.29444995	    157.42521738	      0.29252993	      1.09407739	     -0.16124215	     18.69568399	     -4.91360759	     -4.24792809	     99.22220667	    -22.06170909	    -31.30333748	      0.00000000	     15.34592518	     -4.64888767	      2.21290586	     94.95301543	     -9.66392978	    -19.92111817	      0.00000000	     -8.40867832	     -2.09584594	      2.51422352	    358.76127548	    -23.54570114	   -398.48149688	    148.00237878	     93.23030747	    191.82805012	    203.83705828	   -562.09738218	    138.67607918	     89.10276807
     43.18333330	     -2.39498180	     -2.16606674	    157.30499222	      0.29272725	      1.09451165	     -0.16091221	     18.49924762	     -4.73093509	     -4.10086174	     98.97843155	    -20.84913631	    -30.04753296	      0.00000000	     15.19167509	     -4.79484521	      2.11821160	     94.68228909	     -9.88730122	    -20.23492162	      0.00000000	     -8.31313550	     -2.01362471	      2.62494576	    358.56396012	    -23.41122284	   -398.56821190	    148.00093175	     93.22196631	    191.94252030	    204.29426018	   -562.17222001	    138.88955037	     89.17032454
     43.20000000	     -2.31856120	     -2.12454208	    157.27167917	      0.29286698	      1.09484195	     -0.16043120	     18.37795163	     -4.64246538	     -3.99110786	     98.68871145	    -20.78335396	    -29.92337633	      0.00000000	     15.18806547	     -4.81735876	      2.11948013	     94.45140731	     -9.94488088	    -20.22370313	      0.00000000	     -8.13751602	     -1.95179833	      2.64778900	    358.52648057	    -23.35432154	   -398.57687010	    148.02020249	     93.22050751	    192.08813406	    204.45690931	   -562.24639384	    138.96630726	     89.17368747
     43.21666670	     -2.24126806	     -2.02500782	    157.20672227	      0.29290550	      1.09524792	     -0.15993412	     18.28859586	     -4.51796828	     -3.86127665	     98.48450484	    -20.69326079	    -29.73017998	      0.00000000	     15.14906381	     -4.86984540	      2.12864644	     94.22765764	    -10.06910027	    -20.17914210	      0.00000000	     -7.98524932	     -1.82207647	      2.70214744	    358.43210526	    -23.25577475	   -398.58268660	    148.02769828	     93.21932714	    192.22573455	    204.68432739	   -562.33530919	    139.07819860	     89.17706858
     43.23333330	     -2.21608269	     -1.92000814	    157.08342575	      0.29297824	      1.09547169	     -0.15963664	     18.22500903	     -4.38044354	     -3.63556180	     98.39918876	    -20.07731898	    -28.81720081	      0.00000000	     15.11878794	     -4.98978210	      2.03046390	     94.18878484	    -10.12330654	    -20.29108572	      0.00000000	     -8.06437760	     -1.75388917	      2.86586003	    358.08182747	    -23.05350387	   -398.81015802	    148.20154352	     93.20167148	    192.25639718	    205.11596832	   -562.48276324	    139.53912014	     89.22598925
